<svg xmlns="http://www.w3.org/2000/svg" viewBox="0 0 760 300" width="760" height="300" role="img" aria-label="전송선로의 분포정수 등가회로: 직렬 R·L 과 병렬 G·C 가 반복된다">
  <title>전송선로의 분포정수 등가회로: 직렬 R·L 과 병렬 G·C 가 반복된다</title>
  <rect width="760" height="300" fill="#ffffff"/>
  <defs>
    <marker id="ah" viewBox="0 0 10 10" refX="9" refY="5" markerWidth="7" markerHeight="7" orient="auto-start-reverse">
      <path d="M 0 0 L 10 5 L 0 10 z" fill="#c0392b"/>
    </marker>
    <marker id="ab" viewBox="0 0 10 10" refX="9" refY="5" markerWidth="7" markerHeight="7" orient="auto-start-reverse">
      <path d="M 0 0 L 10 5 L 0 10 z" fill="#0072B2"/>
    </marker>
  </defs>
  <text x="380.0" y="28" font-family='DejaVu Sans, Helvetica, Arial, sans-serif' font-size="13" text-anchor="middle" fill="#1a1a1a" font-weight="bold" font-style="normal">Distributed model of a transmission line</text>
  <text x="380.0" y="48" font-family='DejaVu Sans, Helvetica, Arial, sans-serif' font-size="10" text-anchor="middle" fill="#666" font-weight="normal" font-style="normal">one cell = one short section of length dz  (the pattern repeats)</text>
  <line x1="20" y1="96" x2="60" y2="96" stroke="#1a1a1a" stroke-width="2" stroke-linecap="round"/>
  <line x1="20" y1="216" x2="60" y2="216" stroke="#1a1a1a" stroke-width="2" stroke-linecap="round"/>
  <rect x="60" y="84" width="46" height="24" rx="0" fill="none" stroke="#1a1a1a" stroke-width="2"/>
  <text x="83" y="74" font-family='DejaVu Sans, Helvetica, Arial, sans-serif' font-size="10" text-anchor="middle" fill="#1a1a1a" font-weight="normal" font-style="normal">R dz</text>
  <line x1="106" y1="96" x2="122" y2="96" stroke="#1a1a1a" stroke-width="2" stroke-linecap="round"/>
  <path d="M 122 96 a 9 9 0 0 1 18 0 a 9 9 0 0 1 18 0 a 9 9 0 0 1 18 0 a 9 9 0 0 1 18 0" fill="none" stroke="#1a1a1a" stroke-width="2" stroke-linecap="round" stroke-linejoin="round"/>
  <text x="158" y="74" font-family='DejaVu Sans, Helvetica, Arial, sans-serif' font-size="10" text-anchor="middle" fill="#1a1a1a" font-weight="normal" font-style="normal">L dz</text>
  <line x1="194" y1="96" x2="218" y2="96" stroke="#1a1a1a" stroke-width="2" stroke-linecap="round"/>
  <line x1="218" y1="96" x2="218" y2="132" stroke="#1a1a1a" stroke-width="2" stroke-linecap="round"/>
  <rect x="205" y="132" width="26" height="44" rx="0" fill="none" stroke="#1a1a1a" stroke-width="2"/>
  <line x1="218" y1="176" x2="218" y2="216" stroke="#1a1a1a" stroke-width="2" stroke-linecap="round"/>
  <text x="196" y="158" font-family='DejaVu Sans, Helvetica, Arial, sans-serif' font-size="10" text-anchor="end" fill="#1a1a1a" font-weight="normal" font-style="normal">G dz</text>
  <line x1="218" y1="96" x2="276" y2="96" stroke="#1a1a1a" stroke-width="2" stroke-linecap="round"/>
  <line x1="276" y1="96" x2="276" y2="144" stroke="#1a1a1a" stroke-width="2" stroke-linecap="round"/>
  <line x1="260" y1="144" x2="292" y2="144" stroke="#1a1a1a" stroke-width="2" stroke-linecap="round"/>
  <line x1="260" y1="158" x2="292" y2="158" stroke="#1a1a1a" stroke-width="2" stroke-linecap="round"/>
  <line x1="276" y1="158" x2="276" y2="216" stroke="#1a1a1a" stroke-width="2" stroke-linecap="round"/>
  <text x="300" y="156" font-family='DejaVu Sans, Helvetica, Arial, sans-serif' font-size="10" text-anchor="start" fill="#1a1a1a" font-weight="normal" font-style="normal">C dz</text>
  <line x1="218" y1="216" x2="276" y2="216" stroke="#1a1a1a" stroke-width="2" stroke-linecap="round"/>
  <line x1="60" y1="216" x2="218" y2="216" stroke="#1a1a1a" stroke-width="2" stroke-linecap="round"/>
  <line x1="276" y1="96" x2="310" y2="96" stroke="#1a1a1a" stroke-width="2" stroke-linecap="round"/>
  <line x1="276" y1="216" x2="310" y2="216" stroke="#1a1a1a" stroke-width="2" stroke-linecap="round"/>
  <rect x="310" y="84" width="46" height="24" rx="0" fill="none" stroke="#1a1a1a" stroke-width="2"/>
  <text x="333" y="74" font-family='DejaVu Sans, Helvetica, Arial, sans-serif' font-size="10" text-anchor="middle" fill="#1a1a1a" font-weight="normal" font-style="normal">R dz</text>
  <line x1="356" y1="96" x2="372" y2="96" stroke="#1a1a1a" stroke-width="2" stroke-linecap="round"/>
  <path d="M 372 96 a 9 9 0 0 1 18 0 a 9 9 0 0 1 18 0 a 9 9 0 0 1 18 0 a 9 9 0 0 1 18 0" fill="none" stroke="#1a1a1a" stroke-width="2" stroke-linecap="round" stroke-linejoin="round"/>
  <text x="408" y="74" font-family='DejaVu Sans, Helvetica, Arial, sans-serif' font-size="10" text-anchor="middle" fill="#1a1a1a" font-weight="normal" font-style="normal">L dz</text>
  <line x1="444" y1="96" x2="468" y2="96" stroke="#1a1a1a" stroke-width="2" stroke-linecap="round"/>
  <line x1="468" y1="96" x2="468" y2="132" stroke="#1a1a1a" stroke-width="2" stroke-linecap="round"/>
  <rect x="455" y="132" width="26" height="44" rx="0" fill="none" stroke="#1a1a1a" stroke-width="2"/>
  <line x1="468" y1="176" x2="468" y2="216" stroke="#1a1a1a" stroke-width="2" stroke-linecap="round"/>
  <text x="446" y="158" font-family='DejaVu Sans, Helvetica, Arial, sans-serif' font-size="10" text-anchor="end" fill="#1a1a1a" font-weight="normal" font-style="normal">G dz</text>
  <line x1="468" y1="96" x2="526" y2="96" stroke="#1a1a1a" stroke-width="2" stroke-linecap="round"/>
  <line x1="526" y1="96" x2="526" y2="144" stroke="#1a1a1a" stroke-width="2" stroke-linecap="round"/>
  <line x1="510" y1="144" x2="542" y2="144" stroke="#1a1a1a" stroke-width="2" stroke-linecap="round"/>
  <line x1="510" y1="158" x2="542" y2="158" stroke="#1a1a1a" stroke-width="2" stroke-linecap="round"/>
  <line x1="526" y1="158" x2="526" y2="216" stroke="#1a1a1a" stroke-width="2" stroke-linecap="round"/>
  <text x="550" y="156" font-family='DejaVu Sans, Helvetica, Arial, sans-serif' font-size="10" text-anchor="start" fill="#1a1a1a" font-weight="normal" font-style="normal">C dz</text>
  <line x1="468" y1="216" x2="526" y2="216" stroke="#1a1a1a" stroke-width="2" stroke-linecap="round"/>
  <line x1="310" y1="216" x2="468" y2="216" stroke="#1a1a1a" stroke-width="2" stroke-linecap="round"/>
  <line x1="526" y1="96" x2="730" y2="96" stroke="#1a1a1a" stroke-width="2" stroke-linecap="round"/>
  <line x1="526" y1="216" x2="730" y2="216" stroke="#1a1a1a" stroke-width="2" stroke-linecap="round"/>
  <line x1="730" y1="96" x2="730" y2="216" stroke="#1a1a1a" stroke-width="2" stroke-linecap="round" stroke-dasharray="5 4"/>
  <text x="724" y="82" font-family='DejaVu Sans, Helvetica, Arial, sans-serif' font-size="9" text-anchor="middle" fill="#666" font-weight="normal" font-style="normal">to the load</text>
  <line x1="60" y1="250" x2="310" y2="250" stroke="#c0392b" stroke-width="1.5" stroke-linecap="round"/>
  <line x1="60" y1="244" x2="60" y2="256" stroke="#c0392b" stroke-width="1.5" stroke-linecap="round"/>
  <line x1="310" y1="244" x2="310" y2="256" stroke="#c0392b" stroke-width="1.5" stroke-linecap="round"/>
  <text x="185.0" y="240" font-family='DejaVu Sans, Helvetica, Arial, sans-serif' font-size="10" text-anchor="middle" fill="#c0392b" font-weight="bold" font-style="normal">one cell = dz</text>
  <text x="380.0" y="270" font-family='DejaVu Sans, Helvetica, Arial, sans-serif' font-size="13" text-anchor="middle" fill="#0072B2" font-weight="bold" font-style="normal">Z0 = sqrt( (R + jwL) / (G + jwC) )</text>
  <text x="380.0" y="290" font-family='DejaVu Sans, Helvetica, Arial, sans-serif' font-size="11" text-anchor="middle" fill="#0072B2" font-weight="normal" font-style="normal">lossless line  (R = 0, G = 0):   Z0 = sqrt( L / C )</text>
</svg>
